<svg version="1.1" xmlns="http://www.w3.org/2000/svg" xmlns:xlink="http://www.w3.org/1999/xlink" width="899.97108" height="738.79238" viewBox="0,0,899.97108,738.79238"><g transform="translate(221.37685,343.32691)"><g stroke="none" stroke-miterlimit="10"><path d="M-38.59424,395.46547v-430.93093h717.18847v430.93093z" fill="#000000" stroke-width="0"/><path d="M-221.06378,-341.92937c1.11803,-2.23607 3.3541,-1.11803 3.3541,-1.11803l3.27333,1.65852c5.42589,4.6607 10.84156,9.32928 16.6048,13.57526c7.14392,5.26318 14.99287,9.95237 21.75012,15.70908c3.81364,3.24895 7.06629,7.22167 10.73239,10.63763c8.02464,7.47713 16.19582,14.45683 23.67869,22.52135c0.24625,0.26544 6.87173,7.39966 6.98318,7.55139c2.78623,3.79319 4.86659,8.48361 7.20637,12.57822c5.54995,9.71241 10.71383,19.16927 15.11985,29.44998c2.37994,5.5532 4.0323,11.22186 6.23333,16.79359c0.65652,1.66193 1.85224,3.10285 2.34563,4.82028c0.32931,1.1463 0.04459,2.38492 0.06688,3.57739c0,0 0,2.5 -2.5,2.5c-2.5,0 -2.5,-2.5 -2.5,-2.5c0.06302,-2.28869 -1.21097,-4.42614 -2.05963,-6.55261c-1.61339,-4.04262 -2.48488,-8.04707 -4.21233,-12.07333c-2.30798,-5.3793 -4.28698,-11.09962 -6.97944,-16.2957c-3.0352,-5.85754 -6.58196,-11.5102 -9.8555,-17.23891c-2.24551,-3.92965 -4.22066,-8.45827 -6.89487,-12.09895c-1.91701,-2.60983 -4.41667,-4.73683 -6.61902,-7.11081c-7.39929,-7.97738 -15.48515,-14.86875 -23.42168,-22.26378c-3.61003,-3.36372 -6.81161,-7.2909 -10.56636,-10.48968c-6.66173,-5.67532 -14.41716,-10.29164 -21.46092,-15.48054c-5.70325,-4.20139 -11.10439,-8.79558 -16.42823,-13.45176l-2.73268,-1.34449c0,0 -2.23607,-1.11803 -1.11803,-3.3541z" fill="#000000" stroke-width="0.5"/><text transform="translate(4.5758,13.46737) scale(0.2473,0.2473)" font-size="40" xml:space="preserve" fill="#ffffff" stroke-width="1" font-family="Sans Serif" font-weight="normal" text-anchor="start"><tspan x="0" dy="0">a subsidiary of tort inc.</tspan></text><text transform="translate(256.27859,164.40981) scale(0.64719,3.08152)" font-size="40" xml:space="preserve" fill="#ffffff" stroke-width="1" font-family="&quot;ComicNeue-Bold&quot;, Sans Serif" font-weight="normal" text-anchor="start"><tspan x="0" dy="0">COOL</tspan></text><text transform="translate(319.13038,168.86572) scale(0.5,0.5)" font-size="40" xml:space="preserve" fill="#ffffff" stroke-width="1" font-family="&quot;ComicNeue-Bold&quot;, Sans Serif" font-weight="normal" text-anchor="start"><tspan x="0" dy="0">puzzle</tspan></text><text transform="translate(208.15527,246.34491) rotate(-6.50268) scale(2.10582,2.10582)" font-size="40" xml:space="preserve" fill="#ffffff" stroke-width="1" font-family="&quot;ComicNeue-Bold&quot;, Sans Serif" font-weight="normal" text-anchor="start"><tspan x="0" dy="0">GAME</tspan></text><text transform="translate(321.00655,265.48861) scale(0.5,0.5)" font-size="40" xml:space="preserve" fill="#ffffff" stroke-width="1" font-family="&quot;ComicNeue-Bold&quot;, Sans Serif" font-weight="normal" text-anchor="start"><tspan x="0" dy="0">thing</tspan></text><text transform="translate(207.91935,296.48038) scale(0.5,0.5)" font-size="40" xml:space="preserve" fill="#ffffff" stroke-width="1" font-family="&quot;ComicNeue-Bold&quot;, Sans Serif" font-weight="normal" text-anchor="start"><tspan x="0" dy="0">(its not a puzzle game yet)</tspan></text><text transform="translate(2.70436,351.29597) scale(0.5,0.5)" font-size="40" xml:space="preserve" fill="#ffffff" stroke-width="1" font-family="Sans Serif" font-weight="normal" text-anchor="start"><tspan x="0" dy="0">this is beta 3</tspan></text></g></g></svg>